<svg width="22" height="27" viewBox="0 0 22 27" fill="none" xmlns="http://www.w3.org/2000/svg">
<path d="M21.2994 9.20332C20.416 9.74366 19.6843 10.4991 19.1727 11.3989C18.6611 12.2987 18.3863 13.3134 18.3742 14.3482C18.3777 15.5128 18.7231 16.6508 19.3676 17.6213C20.012 18.5917 20.9273 19.352 22 19.8079C21.5771 21.1711 20.9511 22.463 20.1433 23.6401C18.9873 25.3026 17.7786 26.9649 15.9395 26.9649C14.1004 26.9649 13.6274 25.8975 11.5079 25.8975C9.44107 25.8975 8.70537 27 7.02382 27C5.34228 27 4.16884 25.46 2.82004 23.5701C1.03838 20.9226 0.0592056 17.8178 0 14.6281C0 9.37834 3.41566 6.59607 6.77858 6.59607C8.56528 6.59607 10.0542 7.76838 11.1752 7.76838C12.2436 7.76838 13.9077 6.52592 15.9395 6.52592C16.9841 6.499 18.0194 6.72911 18.9541 7.196C19.8887 7.6629 20.6942 8.35224 21.2994 9.20332ZM14.9762 4.30363C15.8718 3.25104 16.3788 1.92329 16.4125 0.542189C16.414 0.360119 16.3964 0.178393 16.3599 0C14.8214 0.150142 13.3988 0.882709 12.3837 2.04744C11.4795 3.05809 10.9534 4.35037 10.8949 5.70468C10.8955 5.86938 10.9131 6.03358 10.9474 6.19468C11.0687 6.21759 11.1918 6.22932 11.3153 6.22975C12.0243 6.17339 12.7145 5.97357 13.3438 5.64246C13.9732 5.31134 14.5285 4.85584 14.9762 4.30363Z" fill="black" fill-opacity="0.8"/>
</svg>
