<svg width="24" height="24" viewBox="0 0 24 24" fill="none" xmlns="http://www.w3.org/2000/svg">
<rect width="24" height="24" rx="12" fill="#D2D2D7"/>
<mask id="mask0_1818_1324" style="mask-type:alpha" maskUnits="userSpaceOnUse" x="6" y="6" width="12" height="12">
<g clip-path="url(#clip0_1818_1324)">
<path d="M8.99994 15.1499V8.86193C8.98455 8.73974 8.99545 8.61568 9.03192 8.49805C9.06839 8.38042 9.12958 8.27194 9.2114 8.17989C9.29322 8.08785 9.39377 8.01436 9.50632 7.96435C9.61886 7.91434 9.74079 7.88896 9.86394 7.88993C10.1 7.87986 10.3332 7.94498 10.5299 8.07593L15.6479 11.0759C16.1039 11.3399 16.3499 11.5559 16.3499 11.9819C16.3499 12.4079 16.1039 12.6239 15.6479 12.8879L10.5299 15.8879C10.3332 16.0189 10.1 16.084 9.86394 16.0739C9.74473 16.076 9.6264 16.0531 9.5166 16.0066C9.40681 15.9601 9.308 15.8911 9.22656 15.804C9.14513 15.7169 9.08288 15.6137 9.04384 15.501C9.0048 15.3883 8.98985 15.2687 8.99994 15.1499Z" fill="black"/>
</g>
</mask>
<g mask="url(#mask0_1818_1324)">
<rect x="6" y="6" width="12" height="12" fill="black"/>
</g>
<defs>
<clipPath id="clip0_1818_1324">
<rect width="12" height="12" fill="white" transform="translate(6 6)"/>
</clipPath>
</defs>
</svg>
