<svg width="286" height="161" viewBox="0 0 286 161" fill="none" xmlns="http://www.w3.org/2000/svg">
<rect width="286" height="161" fill="#6529CF"/>
<path d="M244.292 145.804V138.519H244.244L241.259 145.804H240.121L237.126 138.519H237.079V145.804H235.679V135.905H237.456L240.66 143.794H240.716L243.913 135.905H245.697V145.804H244.292ZM253.438 145.804H252.018V144.584H251.984C251.585 145.448 250.852 145.934 249.747 145.934C248.176 145.934 247.215 144.913 247.215 143.258V138.586H248.698V142.97C248.698 144.067 249.22 144.657 250.242 144.657C251.313 144.657 251.958 143.916 251.958 142.791V138.586H253.441L253.438 145.804ZM257.501 138.456C259.181 138.456 260.273 139.39 260.321 140.72H258.928C258.845 140.021 258.332 139.582 257.501 139.582C256.698 139.582 256.163 139.974 256.163 140.55C256.163 141.002 256.492 141.311 257.274 141.49L258.448 141.757C259.924 142.1 260.487 142.676 260.487 143.719C260.487 145.036 259.259 145.941 257.556 145.941C255.751 145.941 254.666 145.056 254.529 143.684H255.999C256.136 144.439 256.651 144.808 257.556 144.808C258.448 144.808 258.997 144.439 258.997 143.848C258.997 143.382 258.73 143.107 257.94 142.928L256.766 142.654C255.393 142.338 254.714 141.68 254.714 140.63C254.714 139.341 255.84 138.456 257.501 138.456ZM261.522 136.687C261.513 136.211 261.891 135.818 262.367 135.809C262.843 135.799 263.236 136.177 263.245 136.653C263.255 137.128 262.876 137.521 262.401 137.531C262.394 137.531 262.387 137.531 262.38 137.531C261.91 137.533 261.526 137.157 261.522 136.687ZM261.639 138.586H263.122V145.803H261.639V138.586ZM269.379 141.07C269.228 140.302 268.651 139.691 267.684 139.691C266.538 139.691 265.784 140.645 265.784 142.195C265.784 143.78 266.546 144.699 267.699 144.699C268.611 144.699 269.209 144.197 269.38 143.361H270.807C270.649 144.898 269.421 145.941 267.684 145.941C265.619 145.941 264.274 144.528 264.274 142.196C264.274 139.905 265.619 138.458 267.671 138.458C269.53 138.458 270.662 139.651 270.794 141.071L269.379 141.07ZM230.971 136.871C231.373 136.391 231.572 135.775 231.527 135.15C230.912 135.208 230.342 135.502 229.94 135.971C229.595 136.368 229.292 137.016 229.37 137.626C229.979 137.678 230.588 137.321 230.971 136.871ZM231.519 137.743C230.635 137.691 229.883 138.245 229.461 138.245C229.038 138.245 228.392 137.769 227.694 137.783C226.768 137.806 225.925 138.318 225.478 139.128C224.527 140.765 225.227 143.193 226.151 144.525C226.6 145.185 227.141 145.911 227.852 145.884C228.526 145.859 228.789 145.448 229.608 145.448C230.425 145.448 230.662 145.884 231.375 145.871C232.114 145.857 232.576 145.211 233.025 144.551C233.343 144.084 233.591 143.573 233.764 143.033C233.75 143.02 232.339 142.479 232.325 140.856C232.312 139.497 233.434 138.851 233.486 138.81C232.853 137.876 231.863 137.771 231.519 137.743Z" fill="black"/>
</svg>
