<svg width="41" height="10" viewBox="0 0 41 10" fill="none" xmlns="http://www.w3.org/2000/svg">
<path d="M17.1849 9.5044V3.00495H17.1426L14.4804 9.5044H13.4648L10.7942 3.00495H10.7519V9.5044H9.50298V0.673274H11.088L13.946 7.71062H13.9956L16.8476 0.673274H18.4386V9.5044H17.1849ZM25.3431 9.5044H24.0761V8.41532H24.0459C23.6904 9.1865 23.0364 9.62044 22.051 9.62044C20.6498 9.62044 19.7927 8.70904 19.7927 7.23316V3.06539H21.1153V6.9757C21.1153 7.95478 21.5807 8.48059 22.4923 8.48059C23.4474 8.48059 24.0229 7.8194 24.0229 6.81614V3.06539H25.3455L25.3431 9.5044ZM28.9664 2.94935C30.4656 2.94935 31.4388 3.78218 31.4823 4.96917H30.2395C30.1657 4.34546 29.7075 3.95382 28.9664 3.95382C28.2507 3.95382 27.7732 4.30315 27.7732 4.81687C27.7732 5.22059 28.0669 5.49619 28.7645 5.65574L29.8115 5.89387C31.1281 6.19968 31.6298 6.7134 31.6298 7.64414C31.6298 8.81904 30.5345 9.62649 29.016 9.62649C27.4056 9.62649 26.4384 8.83717 26.3163 7.61271H27.6269C27.749 8.28598 28.2084 8.61597 29.016 8.61597C29.8115 8.61597 30.3011 8.28598 30.3011 7.75897C30.3011 7.34316 30.063 7.09778 29.3581 6.93823L28.3112 6.69406C27.0865 6.41242 26.4808 5.82497 26.4808 4.88819C26.4808 3.73866 27.4854 2.94935 28.9664 2.94935ZM32.5535 1.37072C32.545 0.946451 32.8823 0.595914 33.3067 0.587453C33.731 0.578991 34.0816 0.916233 34.0901 1.3405C34.0986 1.76478 33.7613 2.11531 33.3369 2.12377C33.3309 2.12377 33.3248 2.12377 33.3188 2.12377C32.8993 2.12619 32.5571 1.79016 32.5535 1.37072ZM32.6575 3.06539H33.9801V9.50319H32.6575V3.06539ZM39.5608 5.28103C39.4266 4.59567 38.9115 4.05052 38.0495 4.05052C37.0267 4.05052 36.3545 4.90148 36.3545 6.28429C36.3545 7.69853 37.034 8.51806 38.0628 8.51806C38.8765 8.51806 39.4096 8.07082 39.562 7.32503H40.835C40.6936 8.69575 39.5982 9.62649 38.0495 9.62649C36.207 9.62649 35.0077 8.36576 35.0077 6.2855C35.0077 4.2415 36.207 2.95056 38.0374 2.95056C39.6962 2.95056 40.7057 4.01547 40.8229 5.28224L39.5608 5.28103ZM5.30417 1.53511C5.66203 1.10722 5.83975 0.557234 5.79986 0C5.25098 0.0519763 4.74321 0.314275 4.38414 0.732503C4.07705 1.08667 3.80624 1.66445 3.87636 2.20839C4.4192 2.25553 4.96203 1.93642 5.30417 1.53511ZM5.7926 2.31355C5.00435 2.26641 4.33336 2.76079 3.95736 2.76079C3.58016 2.76079 3.00348 2.33651 2.38085 2.3486C1.55511 2.36915 0.803123 2.82606 0.404158 3.54889C-0.443341 5.00906 0.180496 7.17514 1.00502 8.36334C1.4052 8.952 1.88758 9.59989 2.5223 9.57572C3.12317 9.55275 3.35771 9.1865 4.08794 9.1865C4.81695 9.1865 5.02853 9.57572 5.66445 9.56363C6.32335 9.55154 6.73561 8.97497 7.13579 8.38631C7.4199 7.96929 7.64114 7.51359 7.79468 7.03251C7.78259 7.02042 6.52404 6.53813 6.51195 5.09005C6.49986 3.87767 7.5009 3.3011 7.54684 3.26483C6.98224 2.43201 6.09969 2.33772 5.7926 2.31355Z" fill="black"/>
</svg>
